<svg id="icons" xmlns="http://www.w3.org/2000/svg" viewBox="0 0 128 128" style=""><defs><style>.Graphic-Style-5{fill:#fecd43;}.cls-1{fill:#e89836;}.cls-2{fill:#fff;}.cls-3{fill:none;stroke:#3d344c;stroke-linecap:round;stroke-linejoin:round;stroke-width:4px;}.cls-4{fill:#3d344c;}</style></defs><title>farm-house</title><path class="Graphic-Style-5 iIqjhBjF_0" d="M118,102L118,118L110,118L110,111L102,111L102,118L26,118L26,111L18,111L18,118L10,118L10,102L14,96L18,102L18,103L26,103L26,102L30,96L34,102L34,68L64,38L78,52L78,38L90,38L90,64L94,68L94,102L98,96L102,102L102,103L110,103L110,102L114,96L118,102Z"></path><path class="cls-1 iIqjhBjF_1" d="M50.641,51.359c-2.83-2.711-5.755-5.4-9.938-4.826-4.933.682-6.887,7-4.911,11.038a2.234,2.234,0,0,0,2.471,1.005c1.384-.243,4.287-1.233,5.829-.669L34,68V85.09c.71-.42,1.43-.89,2.19-1.41A54,54,0,0,1,44.85,79c4.22-1.87,9.22-4.04,11.07-8.63a11.043,11.043,0,0,0,.5-6c-.61-3.69-.81-7.76,3.46-9.18a32.888,32.888,0,0,0,4.83-1.59c3.38-1.75,5.25-5.23,5.93-8.96L64,38Z"></path><path class="cls-1 iIqjhBjF_2" d="M114,96l-4,6v1h-8v-1l-4-6-4,6V89.71a18.5,18.5,0,0,0-4.77,2.68,7.987,7.987,0,0,0-2.72,3.98c-.95,3.16.79,6.71-1.41,9.44-1.9,2.36-4.82,3.51-6.28,6.34A10.344,10.344,0,0,0,77.8,118H102v-7h8v7h8V102Z"></path><path class="cls-2 iIqjhBjF_3" d="M57.21,105.94c-3.96-.41-7.72,1.48-11.72,1.3-3.54-.16-6.43-.64-9.79.74a37.61,37.61,0,0,0-9.7,6.19V118H65.79C66.04,112.09,64.91,106.72,57.21,105.94Z"></path><path class="cls-3 iIqjhBjF_4" d="M94,68L94,118L34,118L34,68"></path><path class="cls-3 iIqjhBjF_5" d="M44.1,57.9L22,80"></path><path class="cls-3 iIqjhBjF_6" d="M50.64,51.36L50.65,51.36L64,38L106,80"></path><path class="cls-3 iIqjhBjF_7" width="20" height="30" d="M53 88 L73 88 L73 118 L53 118 Z"></path><path class="cls-3 iIqjhBjF_8" d="M90,38L90,64L78,52L78,38L90,38Z"></path><path class="cls-3 iIqjhBjF_9" d="M10,118L118,118"></path><path class="cls-3 iIqjhBjF_10" d="M118,118L110,118L110,102L114,96L118,102L118,118Z"></path><path class="cls-3 iIqjhBjF_11" d="M102,118L94,118L94,102L98,96L102,102L102,118Z"></path><path class="cls-3 iIqjhBjF_12" width="8" height="8" d="M102 103 L110 103 L110 111 L102 111 Z"></path><path class="cls-3 iIqjhBjF_13" d="M34,118L26,118L26,102L30,96L34,102L34,118Z"></path><path class="cls-3 iIqjhBjF_14" d="M18,118L10,118L10,102L14,96L18,102L18,118Z"></path><path class="cls-3 iIqjhBjF_15" width="8" height="8" d="M18 103 L26 103 L26 111 L18 111 Z"></path><path class="cls-1 iIqjhBjF_16" d="M29.344,57.021c-5.354-.58-5.105-6.851-.9-4.146S31.567,57.262,29.344,57.021Z"></path><path class="cls-4 iIqjhBjF_17" d="M47,10c.408,5.616,4.451,9.275,9.836,10.419,8.427,1.79,20.06-2.214,22.155,9.612.448,2.53,4.3,1.458,3.857-1.063-.951-5.366-4.315-9.687-9.636-11.259C66.823,15.82,51.725,19.961,51,10c-.186-2.552-4.187-2.573-4,0Z"></path><path class="cls-4 iIqjhBjF_18" d="M88.83,23.491c-2.466-5.006,3.571-5.021,6.942-5.426a22.833,22.833,0,0,0,6-1.189,10.905,10.905,0,0,0,6.157-6.844c.854-2.434-3.009-3.481-3.857-1.063-2.528,7.208-11.19,3.962-16.63,6.431-4.2,1.908-3.8,6.592-2.066,10.11,1.137,2.309,4.588.285,3.454-2.019Z"></path><path class="cls-4 iIqjhBjF_19" d="M65,104A2,2 0,1,1 69,104A2,2 0,1,1 65,104"></path><style data-made-with="vivus-instant">.iIqjhBjF_0{stroke-dasharray:434 436;stroke-dashoffset:435;animation:iIqjhBjF_draw 2000ms ease-in 0ms forwards;}.iIqjhBjF_1{stroke-dasharray:154 156;stroke-dashoffset:155;animation:iIqjhBjF_draw 2000ms ease-in 52ms forwards;}.iIqjhBjF_2{stroke-dasharray:157 159;stroke-dashoffset:158;animation:iIqjhBjF_draw 2000ms ease-in 105ms forwards;}.iIqjhBjF_3{stroke-dasharray:94 96;stroke-dashoffset:95;animation:iIqjhBjF_draw 2000ms ease-in 157ms forwards;}.iIqjhBjF_4{stroke-dasharray:160 162;stroke-dashoffset:161;animation:iIqjhBjF_draw 2000ms ease-in 210ms forwards;}.iIqjhBjF_5{stroke-dasharray:32 34;stroke-dashoffset:33;animation:iIqjhBjF_draw 2000ms ease-in 263ms forwards;}.iIqjhBjF_6{stroke-dasharray:79 81;stroke-dashoffset:80;animation:iIqjhBjF_draw 2000ms ease-in 315ms forwards;}.iIqjhBjF_7{stroke-dasharray:100 102;stroke-dashoffset:101;animation:iIqjhBjF_draw 2000ms ease-in 368ms forwards;}.iIqjhBjF_8{stroke-dasharray:69 71;stroke-dashoffset:70;animation:iIqjhBjF_draw 2000ms ease-in 421ms forwards;}.iIqjhBjF_9{stroke-dasharray:108 110;stroke-dashoffset:109;animation:iIqjhBjF_draw 2000ms ease-in 473ms forwards;}.iIqjhBjF_10{stroke-dasharray:55 57;stroke-dashoffset:56;animation:iIqjhBjF_draw 2000ms ease-in 526ms forwards;}.iIqjhBjF_11{stroke-dasharray:55 57;stroke-dashoffset:56;animation:iIqjhBjF_draw 2000ms ease-in 578ms forwards;}.iIqjhBjF_12{stroke-dasharray:32 34;stroke-dashoffset:33;animation:iIqjhBjF_draw 2000ms ease-in 631ms forwards;}.iIqjhBjF_13{stroke-dasharray:55 57;stroke-dashoffset:56;animation:iIqjhBjF_draw 2000ms ease-in 684ms forwards;}.iIqjhBjF_14{stroke-dasharray:55 57;stroke-dashoffset:56;animation:iIqjhBjF_draw 2000ms ease-in 736ms forwards;}.iIqjhBjF_15{stroke-dasharray:32 34;stroke-dashoffset:33;animation:iIqjhBjF_draw 2000ms ease-in 789ms forwards;}.iIqjhBjF_16{stroke-dasharray:17 19;stroke-dashoffset:18;animation:iIqjhBjF_draw 2000ms ease-in 842ms forwards;}.iIqjhBjF_17{stroke-dasharray:97 99;stroke-dashoffset:98;animation:iIqjhBjF_draw 2000ms ease-in 894ms forwards;}.iIqjhBjF_18{stroke-dasharray:70 72;stroke-dashoffset:71;animation:iIqjhBjF_draw 2000ms ease-in 947ms forwards;}.iIqjhBjF_19{stroke-dasharray:13 15;stroke-dashoffset:14;animation:iIqjhBjF_draw 2000ms ease-in 999ms forwards;}@keyframes iIqjhBjF_draw{100%{stroke-dashoffset:0;}}@keyframes iIqjhBjF_fade{0%{stroke-opacity:1;}94.44444444444444%{stroke-opacity:1;}100%{stroke-opacity:0;}}</style></svg>